<?xml version="1.0" encoding="utf-8"?>
<!-- Generator: Adobe Illustrator 19.0.0, SVG Export Plug-In . SVG Version: 6.00 Build 0)  -->
<svg version="1.1" id="圖層_1" xmlns="http://www.w3.org/2000/svg" xmlns:xlink="http://www.w3.org/1999/xlink" x="0px" y="0px"
	 viewBox="0 0 648.6 147.4" style="enable-background:new 0 0 648.6 147.4;" xml:space="preserve">
<style type="text/css">
	.st0{fill:none;stroke:#000000;stroke-width:0.72;stroke-linecap:round;stroke-linejoin:round;stroke-miterlimit:10;}
</style>
<path class="st0" d="M446.7,37.3h-9.2 M428.3,33.2v4.1 M187,9h7.6 M429.6,37.3h1.5h1.9 M442.1,37.3h1.9 M437.5,37.3h2.4 M428.3,37.3
	L428.3,37.3 M446.7,33.2v4.1 M431,126.5h-1.5 M446.7,37.3L446.7,37.3 M428.3,37.3h9.2 M446.7,33.2L446.7,33.2 M446.7,37.3
	L446.7,37.3 M428.3,37.3L428.3,37.3 M437.5,37.3h9.2v-4.1 M439.9,37.3h2.2 M432.9,37.3h2.2 M442.7,41.4h-1.5 M428.7,37.3h-0.3
	 M446.7,37.3h-0.3 M428.3,33.2v4.1h9.2h-2.4 M435.1,126.5h2.4 M428.3,126.5h0.3 M445.4,37.3h0.9 M442.1,126.5h1.9 M444.6,41.4h-0.7
	 M446.3,126.5h-0.9 M444.6,41.4h0.3 M446.3,126.5h0.3 M428.7,37.3h0.9 M444,37.3h1.5 M445.4,126.5H444 M429.6,126.5h-0.9
	 M439.9,126.5h2.2 M437.5,37.3v4.1h1.9 M443.8,41.4h-1.2 M428.3,33.2L428.3,33.2 M439.9,126.5h-2.4 M194.7,9L194.7,9 M431,126.5h1.9
	h2.2 M441.2,41.4h-1.8 M15,37.3v-4.1 M32.1,37.3H33 M16.2,126.5h1.4 M17.1,41.4h-0.2 M15,37.3h9.2h9.2 M16.2,126.5h-0.9 M17.8,41.4
	h-0.7 M355.9,37.3h1.9 M15,126.5h0.3 M28.8,37.3h1.9 M19,41.4h-1.2 M33.3,37.3H33 M24.2,41.4h-1.9 M15.3,37.3h0.9 M32.1,126.5h-1.4
	 M15,37.3v-4.1 M28.8,37.3h-2.2 M33.3,33.2L33.3,33.2 M17.7,126.5h1.9 M33,126.5h0.3 M22.3,41.4h-1.8 M33.3,37.3h-9.2h2.4 M187,9
	L187,9 M33.3,37.3L33.3,37.3v-4.1 M20.5,41.4H19 M16.2,37.3h1.4h1.9 M33.3,37.3v-4.1 M28.8,126.5h-2.2 M21.8,126.5h-2.2 M175.5,9
	H187 M24.2,41.4v-4.1H15 M30.6,37.3h1.4 M26.5,126.5h-2.4 M21.8,37.3h2.4 M15.3,37.3H15 M33,126.5h-0.9 M33.3,33.2H15 M21.8,37.3
	h-2.2 M24.2,126.5h-2.4 M355.9,126.5h-1.5 M353.2,33.2v4.1 M370.3,37.3h0.9 M355.9,126.5h-1.5 M167.9,9L167.9,9 M356,41.4h1.2
	 M364.7,126.5h2.2 M355.9,37.3h-1.5h-0.9h-0.3h9.2 M156.4,9h11.5 M353.2,37.3h9.2 M353.5,126.5h-0.3 M362.4,37.3h9.1h-0.3
	 M353.2,37.3L353.2,37.3 M353.5,126.5h-0.3 M28.8,126.5h1.9 M356,41.4h-0.7 M368.8,37.3h-1.9 M362.4,37.3h2.4 M354.4,126.5h-0.9
	 M353.2,37.3L353.2,37.3 M355,41.4h0.3 M362.4,37.3h9.1 M364.7,37.3h2.2 M370.3,37.3h-1.5 M371.5,37.3L371.5,37.3 M353.2,33.2v4.1
	 M367.5,41.4H366 M371.5,126.5h-0.3 M370.3,126.5h-1.5h-1.9 M358.7,41.4h1.8 M371.5,33.2L371.5,33.2 M357.8,37.3h2.2h2.4
	 M371.5,37.3v-4.1V37.3L371.5,37.3 M364.2,41.4h-1.9 M366.9,126.5h1.9 M371.2,126.5h-0.9 M357.8,126.5h2.2 M362.4,126.5h2.4h2.2
	 M355.9,126.5h1.9 M99.3,37.3h-2.4 M167.9,9h7.7 M105.8,37.3h1.4 M108.5,37.3v-4.1 M103.9,37.3h-2.2 M103.9,126.5h-2.2 M175.5,9
	L175.5,9 M90.2,33.2v4.1h9.2h9.1v-4.1 M99.3,37.3h2.4 M96.9,37.3h-2.2 M96.9,126.5h-2.2 M91.4,37.3h-0.9 M96.9,126.5h2.4
	 M103.9,126.5h1.9 M206.1,9L206.1,9 M90.2,33.2L90.2,33.2 M206.1,9h-11.5 M108.2,126.5h-0.9 M97.4,41.4h-1.8 M99.3,41.4v-4.1
	 M95.7,41.4h-1.5 M99.3,41.4h-1.9 M360.4,41.4h1.9 M90.2,37.3L90.2,37.3 M358.7,41.4h-1.5 M99.3,37.3h9.1 M369.4,41.4h0.3
	 M90.2,126.5h0.3h0.9 M90.2,37.3h9.2 M92,41.4h0.2H93 M103.9,37.3h1.9 M90.2,37.3L90.2,37.3v-4.1 M92.8,126.5h-1.4 M94.1,41.4H93
	 M107.2,37.3h0.9 M108.5,37.3h-0.3 M368.7,41.4h-1.2 M360,126.5h2.4 M371.2,126.5h-0.9 M366,41.4h-1.8 M353.2,33.2L353.2,33.2
	 M360,126.5h2.4 M371.5,126.5h-0.3 M354.4,126.5h-0.9 M357.8,126.5h2.2 M364.7,126.5h-2.4 M369.4,41.4h-0.7 M370.3,126.5h-1.5
	 M355.9,126.5h1.9 M362.4,41.4v-4.1 M94.7,37.3h-1.9h-1.4 M92.8,126.5h1.9 M107.2,126.5h-1.4 M90.5,37.3h-0.3 M101.7,126.5h-2.4
	 M108.2,126.5h0.3 M409.1,33.2h-18.3 M404.5,126.5h1.9 M407.8,126.5h0.9 M395.3,126.5h2.2h2.4 M408.8,126.5h0.3 M402.3,126.5h-2.4
	 M407.8,126.5h0.9 M407,41.4h0.2 M406.4,126.5h1.4 M399.9,37.3v4.1 M407,41.4h-0.7 M390.8,33.2L390.8,33.2 M392,126.5h-0.9
	 M404.5,126.5h1.9 M399.9,126.5h37.6 M406.4,126.5h1.4 M428.3,33.2h-19.3 M409.1,33.2h-18.3h-19.3 M399.9,126.5h37.6 M550.2,37.3
	h9.1 M541.1,37.3L541.1,37.3h9.2 M559.4,33.2L559.4,33.2 M559.4,37.3L559.4,37.3 M554.8,37.3h1.9 M541.1,37.3L541.1,37.3
	 M553.9,41.4h1.5 M542.3,37.3h1.4 M559.1,37.3h0.3v-4.1 M556.7,37.3h1.4 M545.6,37.3h2.2 M559.1,126.5h0.3 M541.1,37.3v-4.1h-19.3
	 M550.2,126.5h-2.4 M541.1,33.2L541.1,33.2 M559.4,37.3L559.4,37.3 M541.4,37.3h0.9 M558.1,126.5h-1.4 M543.7,37.3h1.9 M543.7,126.5
	h-1.4 M552.6,37.3h2.2 M543.7,126.5h1.9 M541.1,33.2v4.1 M558.1,37.3h0.9 M559.4,37.3v-4.1 M541.1,37.3h9.2h9.1 M553.9,41.4h-1.8
	 M547.8,126.5h-2.2 M554.8,126.5h-2.2 M550.2,41.4v-4.1 M541.1,126.5h0.3 M559.1,126.5h-0.9 M552.6,126.5h-2.4 M554.8,126.5h1.9
	 M547.8,37.3h2.4 M541.4,37.3h-0.3 M550.2,41.4h1.9 M556.6,41.4h-1.2 M550.2,37.3h2.4 M279.3,37.3h-0.9H278 M278,126.5h0.3
	 M296.4,37.3L296.4,37.3 M292.4,41.4h-1.5 M278,37.3v-4.1 M279.3,126.5h-0.9 M578.6,33.2h-19.3 M550.2,126.5h37.6 M296.4,33.2v4.1
	 M293.5,41.4h-1.2 M542.3,126.5h-0.9 M287.2,126.5h2.4h2.2 M287.2,37.3h9.2 M280.7,126.5h-1.5 M550.2,126.5h37.6 M280.7,126.5h-1.5
	 M559.4,33.2h-18.3 M289.6,37.3h2.2 M278,126.5h0.3 M289.1,41.4h-1.9 M557.5,41.4h-0.2 M280.8,41.4h1.2 M557.3,41.4h-0.7
	 M293.7,37.3h-1.9 M278,37.3h9.2 M296.4,37.3H296 M296.4,33.2L296.4,33.2 M296.4,33.2v4.1l0,0 M559.4,33.2h-18.3 M53.2,9L53.2,9
	 M278,37.3v-4.1 M41.8,9h11.5 M280.7,37.3h-1.5 M289.6,37.3h-2.4 M278,37.3h9.2 M279.9,41.4h0.3 M282.6,37.3h2.2 M280.7,126.5h1.9
	 M296,37.3h-0.9 M287.2,37.3h9.2 M280.8,41.4h-0.7 M295.1,37.3h-1.5 M280.7,37.3h1.9 M278,37.3L278,37.3 M282.6,126.5h2.2
	 M283.5,41.4H282 M282.6,126.5h2.2 M279.3,126.5h-0.9 M294.3,41.4h-0.7 M295.1,126.5h-1.5 M640.9,3H8.7 M278,33.2L278,33.2
	 M296,126.5h-0.9 M53.2,9h7.6 M284.8,126.5h2.4h2.4 M8.7,9h632.2V3 M285.3,41.4h1.9 M295.1,126.5h0.9h0.3 M284.8,37.3h2.4
	 M290.9,41.4h-1.8 M296,126.5h0.3 M294.3,41.4h0.3 M291.8,126.5h1.9 M287.2,126.5h-2.4 M280.7,126.5h1.9 M289.6,126.5h2.2 M8.7,9V3
	 M295.1,126.5h-1.5 M283.5,41.4h1.8 M291.8,126.5h1.9 M287.2,41.4v-4.1 M165.6,37.3h-0.3h9.1h9.2 M182.4,126.5h-1.4 M165.6,126.5
	h0.9 M179.1,126.5h1.9 M168,37.3h1.9 M72.3,9L72.3,9 M166.5,37.3h-0.9 M169.3,41.4h-1.2 M165.3,37.3L165.3,37.3 M183.6,37.3
	L183.6,37.3 M60.9,9L60.9,9 M168,126.5h-1.4 M179.1,37.3h-2.2 M179.1,126.5h-2.2 M174.5,37.3h9.2 M165.3,37.3v-4.1 M180.9,37.3h1.4
	 M183.6,126.5h-0.3 M182.4,37.3h0.9 M172.1,37.3h-2.2 M168.1,41.4h-0.7 M165.3,37.3L165.3,37.3 M183.6,37.3L183.6,37.3 M167.4,41.4
	h-0.2 M183.3,37.3h0.3 M176.8,37.3h-2.4 M165.3,126.5h0.3 M180.9,37.3h-1.9 M165.3,37.3h9.1 M169.9,126.5h2.2h2.4 M133.2,41.4h-1.5
	 M183.6,33.2L183.6,33.2v4.1 M176.8,126.5h-2.4 M170.8,41.4h-1.5 M127.7,37.3h9.2 M146.1,37.3v-4.1 M128.1,37.3h0.9 M130.4,126.5
	h1.9 M128.1,37.3h-0.3l0,0 M139.3,37.3h2.2 M144.8,126.5h-1.5 M129.6,41.4h0.3 M183.3,126.5h-0.9 M131.7,41.4h-1.2 M132.3,37.3h2.2
	 M146.1,126.5h-0.3 M135,41.4h1.9v-4.1 M165.3,33.2L165.3,33.2 M130.5,41.4h-0.7 M174.5,41.4h-1.9 M172.1,37.3h2.4 M127.7,37.3
	L127.7,37.3 M130.4,126.5H129 M136.9,126.5h2.4 M166.5,37.3h1.4 M80,9h-7.6H60.9 M129,126.5h-0.9 M168,126.5h1.9 M165.3,37.3v-4.1
	 M134.5,37.3h2.4h9.2v-4.1 M127.7,37.3h9.2 M146.1,37.3L146.1,37.3 M80,9L80,9 M141.5,37.3h1.9 M146.1,37.3L146.1,37.3 M145.7,126.5
	h-0.9 M134.5,126.5h-2.2 M172.6,41.4h-1.8 M141.5,126.5h1.9 M136.9,37.3h9.2 M135,41.4h-1.8 M139.3,37.3h-2.4 M174.5,41.4v-4.1
	 M128.1,126.5h-0.3 M127.7,37.3v-4.1 M130.4,37.3H129 M146.1,33.2L146.1,33.2 M144.8,37.3h-1.5 M130.4,37.3h1.9 M127.7,37.3v-4.1
	 M183.6,33.2v4.1 M145.7,37.3h-0.9 M139.3,126.5h2.2 M146.1,37.3h-0.3 M127.7,33.2L127.7,33.2 M134.5,126.5h2.4 M56.6,41.4h-1.2
	 M61.7,37.3h9.2v-4.1 M99.1,9h-7.6H80 M66.3,37.3h1.9 M70.9,37.3L70.9,37.3 M64.1,126.5h2.2 M55.3,126.5h-1.5 M52.6,37.3L52.6,37.3
	 M55.4,41.4h-0.7 M52.9,126.5h-0.3 M70.9,37.3L70.9,37.3 M64.1,37.3h-2.4 M53.8,126.5h-0.9 M61.7,37.3h9.2 M64.1,37.3h2.2
	 M69.7,37.3h-1.5 M52.6,37.3h9.2 M70.9,33.2L70.9,33.2 M91.5,9L91.5,9 M70.9,33.2v4.1 M61.7,126.5h2.4 M99.1,9h11.5 M59.4,126.5h2.4
	 M55.3,126.5h1.9 M55.3,37.3h1.9 M61.7,37.3v4.1 M70.6,126.5h-0.9 M52.6,33.2v4.1 M69.7,126.5h-1.5 M69.7,37.3h0.9h0.3 M70.9,126.5
	h-0.3 M61.7,37.3h-2.4 M57.2,126.5h2.2 M55.3,37.3h-1.5 M52.6,33.2v4.1h0.3 M66.3,126.5h1.9 M99.1,9L99.1,9 M54.4,41.4h0.3
	 M52.6,37.3L52.6,37.3 M58.1,41.4h-1.5 M57.2,37.3h2.2 M52.6,37.3h9.2 M53.8,37.3h-0.9 M58.1,41.4h1.8 M52.6,33.2L52.6,33.2
	 M59.8,41.4h1.9 M15,9h2.2 M34.1,9h7.7 M206.1,9h7.6 M41.8,9L41.8,9 M110.6,9L110.6,9 M17.2,9L17.2,9 M34.1,9L34.1,9H22.7H15
	 M408.8,126.5h0.3 M15,9h2.2 M22.7,9L22.7,9 M371.5,33.2h-18.3 M296.4,33.2H278 M403.6,41.4h-1.8 M615.9,21.1v12.1h18.3 M15,33.2
	L15,33.2 M401.8,41.4h-1.9 M353.2,33.2h-19.3 M503.5,33.2h-19.3 M165.3,33.2h-19.3 M521.8,33.2h-18.3 M33.3,21.1v12.1h19.3
	 M597,33.2h-18.3 M626.6,21.1h7.7 M183.6,33.2h-18.3 M15,21.1L15,21.1 M634.2,33.2V21.1 M15,33.2V21.1 M446.7,33.2h-18.3
	 M578.6,33.2h-19.3 M406.3,41.4h-1.2 M202.9,33.2h-19.3 M240.5,33.2h-19.3 M165.3,33.2h-19.3 M240.5,33.2h-19.3 M521.8,33.2h-18.3
	 M278,33.2h-19.3h-18.3 M597,33.2h-18.3 M221.2,33.2h-18.3 M333.9,33.2h-18.3 M146.1,33.2h-18.3 M52.6,33.2h18.3h19.3h18.3
	 M90.2,33.2H70.9 M146.1,33.2h-18.3 M333.9,33.2h-18.3 M183.6,33.2h-18.3 M428.3,33.2h-19.3 M202.9,33.2h-19.3 M315.6,33.2h-19.3
	 M52.6,33.2H33.3 M402.3,126.5h-2.4 M278,33.2h-19.3 M70.9,33.2H52.6 M127.7,33.2h-19.3 M315.6,33.2h-19.3 M541.1,33.2h-19.3
	 M296.4,33.2H278 M465.9,33.2h-19.3h-18.3 M127.7,33.2h-19.3 M258.8,33.2h-18.3 M390.8,33.2h-19.3 M221.2,33.2h-18.3 M108.5,33.2
	H90.2 M371.5,33.2h-18.3 M33.3,33.2H15 M465.9,37.3v-4.1 M470.5,126.5h-1.9 M625.1,37.3h9.2 M465.9,37.3v-4.1 M483,37.3h0.9
	 M484.2,37.3L484.2,37.3 M475.1,37.3h2.4 M484.2,37.3v-4.1 M353.2,33.2h-19.3 M465.9,126.5h0.3 M615.9,33.2H597 M465.9,37.3h9.2
	 M468.6,126.5h-1.4 M484.2,37.3h-0.3 M478.7,41.4H477 M481.5,37.3h1.4 M465.9,37.3L465.9,37.3 M478.7,41.4h1.5 M484.2,37.3v-4.1l0,0
	 M470.5,37.3h2.2h2.4 M467.1,37.3h1.4 M479.7,37.3h1.9 M466.2,37.3h0.9 M466.2,37.3h-0.3h9.2h9.2 M465.9,33.2h-19.3 M475.1,126.5
	h-2.4 M483.9,126.5H483 M512.7,126.5h-37.6 M503.5,33.2h-19.3 M479.7,126.5h-2.2h-2.4 M465.9,33.2L465.9,33.2 M475.1,37.3h9.2
	 M615.9,37.3L615.9,37.3 M483,126.5h-1.4 M482.1,41.4h-0.7 M477.4,37.3h2.2 M467.1,126.5h-0.9 M484.2,37.3L484.2,37.3 M484.2,33.2
	h-18.3 M481.4,41.4h-1.2 M483.9,126.5h0.3 M481.5,126.5h-1.9 M482.4,41.4h-0.2 M468.6,37.3h1.9 M475.1,37.3v4.1h1.9 M472.7,126.5
	h-2.2 M630.2,41.4h-1.5 M634.2,33.2v4.1 M622.7,37.3h2.4 M617.1,37.3h1.5 M615.9,33.2L615.9,33.2 M484.2,33.2h-18.3 M615.9,33.2v4.1
	 M633.9,37.3h0.3v-4.1h-18.3 M634.2,37.3L634.2,37.3 M615.9,37.3L615.9,37.3 M618.6,126.5h-1.5 M631.5,37.3h1.4 M634.2,33.2
	L634.2,33.2 M512.7,126.5h-37.6 M629.6,37.3h1.9 M615.9,37.3h9.2 M615.9,126.5h0.3 M633,37.3h0.9 M627.4,37.3h2.2 M625.1,37.3h9.2
	 M615.9,33.2v4.1 M634.2,37.3L634.2,37.3 M627.4,37.3h-2.4h-9.2 M615.9,33.2H597 M633.9,126.5h0.3 M633,126.5h-1.4 M630.2,41.4h1.2
	h0.8h0.2 M622.7,126.5h-2.2 M618.6,37.3h1.9 M625.1,41.4h1.9 M617.1,37.3h-0.9 M625.1,37.3v4.1 M616.2,126.5h0.9 M620.5,37.3h2.2
	 M628.7,41.4H627 M634.2,126.5h-9.2 M620.5,126.5h-1.9 M625.1,126.5h2.4h2.2 M633.9,126.5H633 M629.6,126.5h1.9 M625.1,126.5h-2.4
	 M616.2,37.3h-0.3 M33.3,9v12.1 M15,21.1V9 M404.5,126.5h-2.2 M15,37.3L15,37.3 M258.5,126.5h-0.9 M247.7,41.4h1.9 M517.2,37.3h1.9
	 M517.8,41.4h-1.5 M503.5,37.3L503.5,37.3 M512.7,37.3h9.1 M506.2,126.5h-1.5 M521.8,37.3L521.8,37.3 M519.1,37.3h1.5 M241.7,126.5
	h-0.9 M246,41.4h-1.5 M512.7,37.3h-2.4 M503.8,37.3h0.9 M515,37.3h2.2 M521.8,37.3h-0.3h-0.9 M516.3,41.4h-1.8 M520.6,126.5h-1.5
	h-1.9 M521.5,126.5h0.3 M521.8,37.3L521.8,37.3 M508.1,126.5h2.2 M512.7,37.3h-9.2H512.7h9.1v-4.1 M504.7,37.3h1.5 M510.3,126.5h2.4
	 M508.1,37.3h2.2 M515,126.5h2.2 M506.2,37.3h1.9 M503.5,33.2v4.1 M148.8,9h7.6 M512.7,37.3h2.4 M521.8,33.2L521.8,33.2
	 M503.5,126.5h0.3 M506.2,126.5h1.9 M503.5,33.2v4.1 M512.7,41.4h1.9 M515,126.5h-2.4 M521.8,33.2v4.1 M156.4,9L156.4,9
	 M520.6,126.5h0.9 M587.8,37.3h9.2 M519,41.4h-1.2 M512.7,37.3v4.1 M519.7,41.4H519 M587.8,37.3h2.4 M503.8,37.3h-0.3 M578.6,37.3
	L578.6,37.3h9.2 M503.5,33.2L503.5,33.2 M587.8,37.3h9.2 M590.2,37.3h2.2 M597,37.3h-0.3 M581.3,126.5h-1.5 M504.7,126.5h-0.9
	 M519.7,41.4h0.3 M578.6,37.3L578.6,37.3 M597,37.3v-4.1V37.3 M578.6,37.3h9.2 M581.3,37.3h1.9 M597,33.2L597,33.2 M578.6,33.2v4.1
	 M587.8,41.4h1.9 M583.2,37.3h2.2 M594.1,41.4H593 M591.5,41.4h-1.8 M590.2,126.5h-2.4 M596.6,126.5h-0.9 M579.9,37.3h1.5 M110.6,9
	h7.6 M587.8,41.4v-4.1 M593,41.4h-1.5 M594.3,37.3h1.5 M583.2,126.5h2.2 M585.4,37.3h2.4 M596.6,126.5h0.3 M595.7,37.3h0.9 M118.2,9
	L118.2,9 M597,37.3L597,37.3 M578.6,33.2L578.6,33.2 M581.3,126.5h1.9 M595.7,126.5h-1.5 M590.2,126.5h2.2h1.9 M592.4,37.3h1.9
	 M578.6,33.2v4.1h0.3h0.9 M578.6,126.5h0.3 M585.4,126.5h2.4 M594.9,41.4h-0.7 M33.6,120.5v6.1 M2,138.6v6.1 M634.2,126.5
	L634.2,126.5 M2,138.6h645.6 M615.9,126.5v-6.1 M579,126.5h0.9 M15.3,132.6v-6.1 M2,144.7h645.6 M61.7,126.5H33.6 M594.9,41.4h0.3
	 M33.6,120.5h582.2 M634.2,132.6H15.3 M640.9,132.6H8.7 M634.2,126.5v6.1 M647.6,144.7v-6.1 M287.2,126.5h-37.6 M475.1,126.5h-37.6
	 M136.9,126.5h37.6 M287.2,126.5h37.6 M136.9,126.5H99.3 M8.7,132.6v6 M61.7,126.5h37.6 M249.6,126.5H212h-37.6 M640.9,132.6v6
	 M204.7,41.4h0.3 M174.5,126.5H212h37.6h37.6 M324.8,126.5h37.6 M15.3,126.5L15.3,126.5 M399.9,126.5h-37.6 M15.3,126.5h8.8
	 M61.7,126.5h37.6 M550.2,126.5h-37.6 M287.2,126.5h37.6 M550.2,126.5h-37.6 M136.9,126.5H99.3 M202.9,37.3L202.9,37.3 M15.3,126.5
	L15.3,126.5 M212,37.3h9.2 M204.1,126.5h-0.9 M399.9,126.5h-37.6 M136.9,126.5h37.6 M324.8,126.5h37.6 M202.9,37.3L202.9,37.3
	 M640.9,138.6H8.7 M221.2,37.3h-0.3 M475.1,126.5h-37.6 M615.9,126.5h-28.1h37.3 M61.7,126.5H24.2 M202.9,37.3h9.2 M218.5,37.3h-1.9
	 M212,37.3h-2.4 M204.1,37.3h-0.9 M221.2,37.3v-4.1 M202.9,37.3v-4.1 M118.2,9h11.5 M205.7,41.4H205 M205.6,37.3h-1.5 M212,126.5
	h-2.4h-2.2h-1.9h-1.5 M202.9,37.3v-4.1 M212,37.3h9.2 M207.5,37.3h-1.9 M220,37.3h-1.5 M205.7,41.4h1.2 M221.2,37.3L221.2,37.3
	 M214.4,126.5h2.2 M220.9,37.3H220 M207.5,37.3h2.2 M212,126.5h2.4 M129.7,9L129.7,9 M220.9,126.5h0.3 M216.6,126.5h1.9 M203.2,37.3
	h-0.3 M220,126.5h-1.5 M202.9,37.3h9.2 M221.2,37.3v-4.1 M202.9,126.5h0.3 M214.4,37.3h2.2 M221.2,33.2L221.2,33.2 M214.4,37.3H212
	 M317.7,41.4h-0.2 M220.9,126.5H220 M315.6,37.3L315.6,37.3 M331.2,37.3h-1.9 M210.1,41.4h1.9 M324.8,37.3h9.1 M202.9,33.2
	L202.9,33.2 M208.4,41.4h1.8 M221.2,37.3L221.2,37.3 M315.6,37.3h9.1 M330,41.4h-1.5 M316.8,126.5h-0.9 M212,37.3v4.1 M315.6,37.3
	v-4.1 M315.6,126.5h0.3 M208.4,41.4h-1.5 M318.3,126.5h-1.4 M318.4,41.4h1.2 M333.9,37.3L333.9,37.3 M315.6,37.3L315.6,37.3
	 M329.4,126.5h1.9 M324.8,41.4v-4.1 M316.8,37.3h1.4 M329.4,126.5h1.9 M328.4,41.4h-1.8 M324.8,126.5h-2.4 M329.4,126.5h-2.2
	 M318.3,126.5h1.9 M315.6,33.2L315.6,33.2 M329.4,37.3h-2.2 M331.1,41.4H330 M322.4,37.3h-2.2 M333.6,126.5h0.3 M316.8,126.5h-0.9
	 M324.8,126.5h-2.4 M332.7,37.3h0.9 M319.6,41.4h1.5h1.8 M333.9,37.3h-0.3 M318.4,41.4h-0.7 M333.6,126.5h0.3 M331.8,41.4h-0.7
	 M332.7,126.5h-1.4 M322.4,126.5h-2.2 M318.3,37.3h1.9 M129.7,9h7.6 M315.9,37.3h-0.3 M315.6,126.5h0.3 M324.8,37.3h9.1v-4.1
	 M331.2,37.3h1.4 M333.9,33.2v4.1l0,0 M327.1,126.5h-2.4 M315.6,37.3h9.1 M318.3,126.5h1.9 M315.9,37.3h0.9 M318.3,126.5h-1.4
	 M315.6,37.3v-4.1 M326.7,41.4h-1.9 M332.7,126.5h0.9 M322.4,126.5h-2.2 M332.7,126.5h-1.4 M322.4,37.3h2.4 M137.3,9L137.3,9
	 M324.8,37.3h2.4 M332.7,126.5h0.9 M240.8,126.5h-0.3 M254.2,126.5H252 M243.1,126.5h-1.4 M322.9,41.4h1.9 M242.5,41.4h0.7h1.2
	 M240.5,33.2v4.1h9.2 M241.7,126.5h-0.9 M240.5,37.3L240.5,37.3 M331.8,41.4h0.2 M258.8,33.2L258.8,33.2 M256.1,37.3h1.4
	 M240.8,126.5h-0.3 M329.4,126.5h-2.2 M249.6,37.3h9.1 M257.5,37.3h0.9 M327.1,126.5h-2.4 M148.8,9L148.8,9 M258.5,37.3h0.3
	 M240.5,37.3v-4.1 M249.6,37.3h9.1 M256.1,37.3h-1.9 M249.6,37.3h2.4 M240.5,37.3L240.5,37.3 M258.8,33.2v4.1 M242.5,41.4h-0.2
	 M254.2,37.3H252 M258.8,33.2v4.1 M240.5,37.3h9.2 M243.1,126.5h-1.4 M258.8,37.3L258.8,37.3 M246,41.4h1.8 M245,37.3h2.2
	 M249.6,126.5h-2.4 M240.5,37.3h0.3 M247.2,126.5H245h-1.9 M240.8,37.3h0.9 M137.3,9h11.5 M249.6,126.5h-2.4 M254.2,126.5h1.9
	 M252,126.5h-2.4 M257.5,126.5h-1.4 M249.6,41.4v-4.1h-2.4 M258.8,126.5h-0.3 M243.1,37.3h1.9 M243.1,126.5h1.9h2.2 M240.5,33.2
	L240.5,33.2 M241.7,37.3h1.4 M531,21.1L531,21.1 M588.3,21.1h-11.5 M607.5,21.1L607.5,21.1 M511.9,21.1h-11.5 M569.2,21.1
	L569.2,21.1 M550.1,21.1h-11.5 M481.3,21.1L481.3,21.1 M634.2,21.1H632 M550.1,21.1L550.1,21.1 M626.6,21.1h-11.5 M454.6,21.1
	L454.6,21.1 M626.6,21.1L626.6,21.1 M531,21.1h-11.5 M435.5,21.1L435.5,21.1 M443.1,21.1h11.5H443.1L443.1,21.1 M615.1,21.1
	L615.1,21.1 M359,21.1L359,21.1 M500.4,21.1L500.4,21.1 M347.5,21.1L347.5,21.1 M385.8,21.1L385.8,21.1 M473.7,21.1L473.7,21.1
	 M588.3,21.1L588.3,21.1 M596,21.1L596,21.1 M569.2,21.1h-11.5 M538.7,21.1L538.7,21.1 M632,21.1L632,21.1 M462.2,21.1L462.2,21.1
	 M492.8,21.1h-11.5 M511.9,21.1h-11.5 M576.9,21.1L576.9,21.1 M550.1,21.1h-11.5 M519.6,21.1L519.6,21.1 M473.7,21.1h-11.5
	 M424,21.1h11.5 M634.2,21.1H632 M397.2,21.1L397.2,21.1 M378.1,21.1h-11.5 M404.9,21.1L404.9,21.1 M359,21.1h-11.5 M511.9,21.1
	L511.9,21.1 M397.2,21.1h-11.5 M492.8,21.1h-11.5 M626.6,21.1h-11.5 M366.6,21.1L366.6,21.1 M531,21.1h-11.5 M473.7,21.1h-11.5
	 M557.8,21.1L557.8,21.1 M492.8,21.1L492.8,21.1 M588.3,21.1h-11.5 M607.5,21.1H596 M282.6,21.1L282.6,21.1 M301.7,21.1h-11.5
	 M206.1,21.1L206.1,21.1 M271.1,21.1L271.1,21.1 M301.7,21.1L301.7,21.1 M263.4,21.1H252 M328.4,21.1L328.4,21.1 M320.8,21.1h-11.5
	 M378.1,21.1h7.6 M225.2,21.1L225.2,21.1 M309.3,21.1L309.3,21.1 M339.9,21.1h-11.5 M110.6,21.1H99.1 M53.2,21.1H41.8 M252,21.1
	L252,21.1 M282.6,21.1h-11.5 M339.9,21.1h-11.5 M148.8,21.1h-11.5 M91.5,21.1L91.5,21.1 M118.2,21.1L118.2,21.1 M110.6,21.1
	L110.6,21.1 M416.4,21.1h-11.5 M99.1,21.1L99.1,21.1 M424,21.1L424,21.1 M320.8,21.1h-11.5 M137.3,21.1L137.3,21.1 M72.3,21.1
	L72.3,21.1 M244.3,21.1h-11.5 M263.4,21.1H252 M301.7,21.1h-11.5 M244.3,21.1L244.3,21.1 M397.2,21.1h-11.5 M339.9,21.1L339.9,21.1
	 M232.9,21.1L232.9,21.1 M72.3,21.1H60.9 M187,21.1h-11.5 M206.1,21.1h-11.5 M569.2,21.1h-11.5 M60.9,21.1L60.9,21.1 M187,21.1
	h-11.5 M167.9,21.1h-11.5 M282.6,21.1h7.6 M213.8,21.1L213.8,21.1 M148.8,21.1h-11.5 M290.2,21.1L290.2,21.1 M110.6,21.1H99.1
	 M282.6,21.1h-11.5 M424,21.1h11.5 M167.9,21.1h-11.5 M91.5,21.1H80 M41.8,21.1L41.8,21.1 M148.8,21.1L148.8,21.1 M416.4,21.1h-11.5
	 M194.7,21.1L194.7,21.1 M416.4,21.1L416.4,21.1 M263.4,21.1L263.4,21.1 M175.5,21.1L175.5,21.1 M187,21.1L187,21.1 M167.9,21.1
	L167.9,21.1 M129.7,21.1L129.7,21.1 M244.3,21.1h-11.5 M320.8,21.1L320.8,21.1 M225.2,21.1h-11.5 M634.2,21.1V9 M53.2,21.1h7.6
	 M91.5,21.1h7.6 M80,21.1L80,21.1 M34.1,21.1L34.1,21.1 M359,21.1h7.7 M15,21.1h2.2 M22.7,21.1L22.7,21.1 M72.3,21.1H60.9 M22.7,9
	v12.1h11.5h7.7 M225.2,21.1h7.6 M17.2,21.1H15h7.7 M53.2,21.1L53.2,21.1 M129.7,21.1h-11.5 M17.2,21.1L17.2,21.1 M320.8,9v12.1
	 M137.3,21.1V9 M15,21.1V9 M53.2,21.1V9 M271.1,9v12.1 M80,9v12.1 M206.1,21.1h-11.5 M252,9v12.1 M328.4,21.1V9 M244.3,21.1V9
	 M194.7,9v12.1 M339.9,9v12.1 M290.2,21.1V9 M347.5,21.1V9 M129.7,9v12.1 M366.6,21.1V9 M187,21.1V9 M301.7,9v12.1 M60.9,9v12.1
	 M167.9,9v12.1 M232.9,9v12.1 M41.8,9v12.1 M309.3,21.1V9 M91.5,9v12.1 M110.6,9v12.1 M634.2,21.1V9 M156.4,21.1V9 M206.1,21.1V9
	 M263.4,21.1V9 M359,9v12.1 M72.3,21.1V9 M34.1,21.1V9 M225.2,21.1V9 M118.2,21.1V9 M99.1,21.1V9 M175.5,21.1V9 M148.8,9v12.1
	 M15,21.1V9 M282.6,9v12.1 M538.7,9v12.1 M473.7,9v12.1 M443.1,21.1V9 M588.3,9v12.1 M596,21.1V9 M454.6,9v12.1 M397.2,21.1V9
	 M557.8,9v12.1 M531,21.1V9 M213.8,9v12.1 M569.2,21.1V9 M634.2,21.1V9 M435.5,9v12.1 M416.4,9v12.1 M462.2,21.1V9 M385.8,9v12.1
	 M607.5,9v12.1 M481.3,21.1V9 M511.9,21.1V9 M500.4,9v12.1 M404.9,9v12.1 M492.8,21.1V9 M626.6,9v12.1 M615.1,21.1V9 M519.6,9v12.1
	 M550.1,21.1V9 M424,9v12.1 M576.9,9v12.1 M378.1,21.1V9 M366.6,21.1V9 M473.7,9v12.1 M244.3,21.1V9 M290.2,21.1V9 M213.8,9v12.1
	 M99.1,21.1V9 M252,9v12.1 M271.1,9v12.1 M435.5,9v12.1 M347.5,21.1V9 M282.6,9v12.1 M156.4,21.1V9 M359,9v12.1 M416.4,9v12.1
	 M17.2,9v12.1 M137.3,21.1V9 M187,21.1V9 M129.7,9v12.1 M328.4,21.1V9 M385.8,9v12.1 M263.4,21.1V9 M206.1,21.1V9 M72.3,21.1V9
	 M53.2,21.1V9 M110.6,9v12.1 M378.1,21.1V9 M41.8,9v12.1 M167.9,9v12.1 M320.8,9v12.1 M339.9,9v12.1 M404.9,9v12.1 M60.9,9v12.1
	 M118.2,21.1V9 M175.5,21.1V9 M91.5,9v12.1 M309.3,21.1V9 M424,9v12.1 M454.6,9v12.1 M22.7,9v12.1 M80,9v12.1 M17.2,9v12.1
	 M443.1,21.1V9 M34.1,21.1V9 M397.2,21.1V9 M194.7,9v12.1 M301.7,9v12.1 M148.8,9v12.1 M492.8,21.1V9 M569.2,21.1h7.7 M632,9v12.1
	 M225.2,21.1V9 M462.2,21.1V9 M596,21.1h-7.6 M550.1,21.1V9 M596,21.1h11.5h7.6 M607.5,9v12.1 M91.5,21.1H80 M187,21.1h7.6
	 M615.1,21.1V9 M569.2,21.1V9 M634.2,21.1L634.2,21.1 M511.9,21.1V9 M232.9,9v12.1 M500.4,9v12.1 M481.3,21.1V9 M531,21.1V9
	 M626.6,9v12.1 M576.9,9v12.1 M538.7,9v12.1 M588.3,9v12.1 M632,9v12.1 M519.6,9v12.1 M557.8,9v12.1 M596,21.1V9 M519.6,21.1h-7.6
	 M550.1,21.1h7.7 M538.7,21.1H531 M206.1,21.1h7.6 M399.9,37.3h9.1 M53.2,21.1H41.8 M462.2,21.1h-7.6 M404.5,37.3h1.9 M390.8,126.5
	h0.3 M244.3,21.1h7.6 M225.2,21.1h-11.5 M390.8,37.3h9.1 M492.8,21.1h7.7 M390.8,37.3L390.8,37.3 M320.8,21.1h7.7 M443.1,21.1h-7.6
	 M167.9,21.1h7.7 M301.7,21.1h7.6 M397.2,21.1h7.7 M339.9,21.1h7.6 M473.7,21.1h7.7 M378.1,21.1h-11.5 M110.6,21.1h7.6 M263.4,21.1
	h7.6 M359,21.1h-11.5 M129.7,21.1h-11.5 M34.1,21.1H22.7 M148.8,21.1h7.6 M416.4,21.1h7.6 M72.3,21.1H80 M405.1,41.4h-1.5
	 M129.7,21.1h7.6 M409.1,37.3L409.1,37.3 M391.1,37.3h-0.3 M301.7,9L301.7,9 M347.5,9L347.5,9 M409.1,33.2v4.1 M404.5,37.3h-2.2
	 M309.3,9h11.5 M393.4,126.5H392 M407.8,37.3h0.9 M392,37.3h1.4 M225.2,9L225.2,9 M244.3,9L244.3,9 M328.4,9h-7.7 M232.9,9L232.9,9
	 M409.1,37.3h-9.1h2.4 M390.8,37.3v-4.1 M393.4,126.5h1.9 M393.4,37.3h1.9 M409.1,33.2v4.1 M252,9h11.5 M213.8,9L213.8,9
	 M404.5,126.5h-2.2 M282.6,9h7.6 M406.4,37.3h1.4 M397.5,37.3h2.4 M244.3,9h-11.5 M252,9L252,9 M397.5,37.3h-2.2 M244.3,9h7.6
	 M263.4,9h7.6 M301.7,9h7.6 M409.1,33.2L409.1,33.2 M320.8,9L320.8,9 M339.9,9h7.6 M390.8,37.3h9.1 M225.2,9h7.6 M290.2,9L290.2,9
	 M339.9,9L339.9,9 M271.1,9L271.1,9 M409.1,37.3L409.1,37.3 M359,9L359,9 M213.8,9h11.5 M409.1,37.3h-0.3 M390.8,37.3v-4.1
	 M391.1,37.3h0.9 M538.7,9L538.7,9 M366.6,9L366.6,9 M462.2,9h-7.6h-11.5 M576.9,9L576.9,9 M424,9L424,9 M557.8,9L557.8,9 M531,9
	h-11.5 M634.2,9h-7.7 M588.3,9L588.3,9 M404.9,9h-7.7 M596,9h-7.6 M615.1,9h-7.6 M634.2,9L634.2,9 M626.6,9h-11.5 M550.1,9h-11.5
	 M282.6,9L282.6,9 M385.8,9h11.5 M511.9,9h-11.5 M435.5,9L435.5,9 M511.9,9L511.9,9 M632,9h2.2 M481.3,9L481.3,9 M416.4,9L416.4,9
	 M607.5,9H596 M519.6,9h-7.6 M632,9h2.2 M588.3,9h-11.5 M416.4,9h7.6 M481.3,9h11.5 M424,9h11.5 M500.4,9h-7.7 M443.1,9L443.1,9
	 M404.9,9L404.9,9 M378.1,9h7.6 M615.1,9L615.1,9 M550.1,9L550.1,9 M263.4,9L263.4,9 M443.1,9h-7.6 M290.2,9h11.5 M492.8,9L492.8,9
	 M500.4,9L500.4,9 M385.8,9L385.8,9 M416.4,9h-11.5 M328.4,9h11.5 M607.5,9L607.5,9 M378.1,9L378.1,9 M309.3,9L309.3,9 M366.6,9H359
	h-11.5 M397.2,9L397.2,9 M596,9L596,9 M462.2,9L462.2,9 M473.7,9L473.7,9 M569.2,9h-11.5h-7.7 M481.3,9h-7.7 M366.6,9h11.5 M531,9
	L531,9 M473.7,9h-11.5 M454.6,9L454.6,9 M282.6,9h-11.5 M632,9L632,9 M626.6,9L626.6,9 M519.6,9L519.6,9 M576.9,9h-7.7 M615.9,21.1
	V9 M538.7,9H531 M634.2,21.1L634.2,21.1 M33.3,9h582.6 M615.9,21.1H33.3 M15,21.1L15,21.1 M392.6,41.4h0.2l-1.8-4.1h-0.3L392.6,41.4
	 M392.8,41.4h0.7l-1.6-4.1h-0.9L392.8,41.4 M397.5,37.3l0.5,4.1h1.9v-4.1H397.5 M407.8,37.3h-1.4l-1.3,4.1h1.2L407.8,37.3
	 M402.3,37.3l-0.5,4.1h1.8l0.9-4.1H402.3 M409.1,37.3h-0.3l-1.8,4.1h0.2L409.1,37.3 M408.8,37.3h-0.9l-1.6,4.1h0.7L408.8,37.3
	 M393.6,41.4h1.2l-1.3-4.1H392L393.6,41.4 M393.4,37.3h1.9l0.9,4.1h1.8l-0.5-4.1h-2.2l0.9,4.1h-1.5L393.4,37.3 M404.5,37.3l-0.9,4.1
	h1.5l1.3-4.1H404.5 M399.9,37.3v4.1h1.9l0.5-4.1H399.9 M623.1,41.4h-1.8l-0.9,85.1h2.2L623.1,41.4 M617.7,41.4h0.3l-1.8-4.1h-0.3
	L617.7,41.4 M633.9,37.3H633l-1.6,4.1h0.8L633.9,37.3 M618.6,126.5l1.3-85.1h-1.2l-1.6,85.1H618.6 M627.4,37.3l-0.5,4.1h1.8l0.9-4.1
	H627.4 M634.2,37.3h-0.3l-1.8,4.1h0.2L634.2,37.3 M625.1,37.3v4.1h1.9l0.5-4.1H625.1 M617.1,126.5l1.6-85.1H618l-1.8,85.1H617.1
	 M629.6,37.3l-0.9,4.1h1.5l1.3-4.1H629.6 M618.6,37.3l1.3,4.1h1.5l-0.9-4.1H618.6 M625.1,41.4v85.1h2.4L627,41.4H625.1 M628.7,41.4
	l0.9,85.1h1.9l-1.3-85.1H628.7 M622.7,37.3l0.5,4.1h1.9v-4.1H622.7 M621.4,41.4h-1.5l-1.3,85.1h1.9L621.4,41.4 M616.2,126.5
	l1.8-85.1h-0.3l-1.8,85.1H616.2 M627,41.4l0.5,85.1h2.2l-0.9-85.1H627 M632.1,41.4h-0.8l1.6,85.1h0.9L632.1,41.4 M625.1,41.4h-1.9
	l-0.5,85.1h2.4V41.4 M631.4,41.4h-1.2l1.3,85.1h1.4L631.4,41.4 M618.7,41.4h1.2l-1.3-4.1h-1.5L618.7,41.4 M618,41.4h0.7l-1.6-4.1
	h-0.9L618,41.4 M633,37.3h-1.4l-1.3,4.1h1.2L633,37.3 M620.5,37.3l0.9,4.1h1.8l-0.5-4.1H620.5 M632.4,41.4h-0.2l1.8,85.1h0.3
	L632.4,41.4 M69.7,37.3h-1.5l-1.3,4.1l1.3,85.1h1.5l-1.6-85.1h-1.2h1.2L69.7,37.3 M61.7,37.3v4.1h1.9l0.5-4.1H61.7 M55.3,37.3
	l1.3,4.1h1.5l-0.9-4.1H55.3 M52.9,126.5h0.9l1.6-85.1h-0.7L52.9,126.5 M57.2,37.3l0.9,4.1h1.8l-0.5-4.1H57.2 M68.8,41.4l1.8,85.1
	h0.3l-1.8-85.1H68.8 M66.3,37.3l-0.9,4.1h1.5l1.3-4.1H66.3 M56.6,41.4l-1.3,85.1h1.9l0.9-85.1H56.6 M59.8,41.4l-0.5,85.1h2.4V41.4
	H59.8 M70.6,37.3h-0.9l-1.6,4.1h0.7L70.6,37.3 M58.1,41.4l-0.9,85.1h2.2l0.5-85.1H58.1 M70.9,37.3h-0.3l-1.8,4.1h0.3L70.9,37.3
	 M55.4,41.4h1.2l-1.3-4.1h-1.5L55.4,41.4 M66.9,41.4h-1.5l0.9,85.1h1.9L66.9,41.4 M64.1,37.3l-0.5,4.1h1.8l0.9-4.1H64.1 M65.4,41.4
	h-1.8l0.5,85.1h2.2L65.4,41.4 M54.7,41.4h0.7l-1.6-4.1h-0.9L54.7,41.4 M59.4,37.3l0.5,4.1h1.9v-4.1H59.4 M53.8,126.5h1.5l1.3-85.1
	h-1.2L53.8,126.5 M63.6,41.4h-1.9v85.1h2.4L63.6,41.4 M68.1,41.4l1.6,85.1h0.9l-1.8-85.1H68.1 M52.6,126.5h0.3l1.8-85.1h-0.3
	L52.6,126.5 M54.4,41.4h0.3l-1.8-4.1h-0.3L54.4,41.4 M167.4,41.4h0.7l-1.6-4.1h-0.9L167.4,41.4 M179.1,37.3l-0.9,4.1h1.5l1.3-4.1
	H179.1 M181.5,41.4l1.8,85.1h0.3l-1.8-85.1H181.5 M172.6,41.4l-0.5,85.1h2.4V41.4H172.6 M183.6,37.3h-0.3l-1.8,4.1h0.2L183.6,37.3
	 M169.3,41.4l-1.3,85.1h1.9l0.9-85.1H169.3 M180.8,41.4l1.6,85.1h0.9l-1.8-85.1H180.8 M168,37.3l1.3,4.1h1.5l-0.9-4.1H168
	 M172.1,37.3l0.5,4.1h1.9v-4.1H172.1 M179.7,41.4l1.3,85.1h1.4l-1.6-85.1H179.7 M174.5,37.3v4.1h1.9l0.5-4.1H174.5 M176.8,37.3
	l-0.5,4.1h1.8l0.9-4.1H176.8 M165.6,126.5h0.9l1.6-85.1h-0.7L165.6,126.5 M166.5,126.5h1.4l1.3-85.1h-1.2l-1.6-4.1h1.4l1.3,4.1h-1.2
	L166.5,126.5 M178.1,41.4h-1.8l0.5,85.1h2.2L178.1,41.4 M176.4,41.4h-1.9v85.1h2.4L176.4,41.4 M183.3,37.3h-0.9l-1.6,4.1h0.7
	L183.3,37.3 M179.7,41.4h-1.5l0.9,85.1h1.9L179.7,41.4 M169.9,37.3l0.9,4.1h1.8l-0.5-4.1H169.9 M165.3,126.5h0.3l1.8-85.1h-0.2
	L165.3,126.5 M170.8,41.4l-0.9,85.1h2.2l0.5-85.1H170.8 M182.4,37.3h-1.4l-1.3,4.1h1.2L182.4,37.3 M167.1,41.4h0.2l-1.8-4.1h-0.3
	L167.1,41.4 M31.2,41.4l1.8,85.1h0.3l-1.8-85.1H31.2 M16.2,126.5h1.4L19,41.4h-1.2L16.2,126.5 M16.8,41.4h0.2l-1.8-4.1H15L16.8,41.4
	 M24.2,37.3v4.1h1.9l0.5-4.1H24.2 M26.1,41.4h-1.9v85.1h2.4L26.1,41.4 M19,41.4l-1.3,85.1h1.9l0.9-85.1H19 M27.8,41.4h-1.8l0.5,85.1
	h2.2L27.8,41.4 M17.1,41.4h0.7l-1.6-4.1h-0.9L17.1,41.4 M29.4,41.4l1.3,85.1h1.4l-1.6-85.1H29.4 M15.3,126.5h0.9l1.6-85.1h-0.7
	L15.3,126.5 M28.8,37.3l-0.9,4.1h1.5l1.3-4.1H28.8 M33.3,37.3H33l-1.8,4.1h0.2L33.3,37.3 M30.5,41.4l1.6,85.1H33l-1.8-85.1H30.5
	 M17.7,37.3l1.3,4.1h1.5l-0.9-4.1H17.7 M32.1,37.3h-1.4l-1.3,4.1h1.2L32.1,37.3 M33,37.3h-0.9l-1.6,4.1h0.7L33,37.3 M15,126.5h0.3
	l1.8-85.1h-0.2L15,126.5 M26.5,37.3l-0.5,4.1h1.8l0.9-4.1H26.5 M20.5,41.4l-0.9,85.1h2.2l0.5-85.1H20.5 M21.8,37.3l0.5,4.1h1.9v-4.1
	H21.8 M19.6,37.3h2.2l0.5,4.1l-0.5,85.1h2.4V41.4h-1.9h-1.8L19.6,37.3 M17.8,41.4H19l-1.3-4.1h-1.4L17.8,41.4 M29.4,41.4h-1.5
	l0.9,85.1h1.9L29.4,41.4 M282.6,37.3l0.9,4.1h1.8l-0.5-4.1H282.6 M291.8,37.3l-0.9,4.1h1.5l1.3-4.1H291.8 M279.9,41.4h0.3l-1.8-4.1
	H278L279.9,41.4 M280.1,41.4h0.7l-1.6-4.1h-0.9L280.1,41.4 M296.4,37.3H296l-1.8,4.1h0.3L296.4,37.3 M296,37.3h-0.9l-1.6,4.1h0.7
	L296,37.3 M280.8,41.4h1.2l-1.3-4.1h-1.5L280.8,41.4 M289.6,37.3l-0.5,4.1h1.8l0.9-4.1H289.6 M295.1,37.3h-1.5l-1.3,4.1h1.2
	L295.1,37.3 M280.7,37.3l1.3,4.1h1.5l-0.9-4.1H280.7 M284.8,37.3l0.5,4.1h1.9v-4.1H284.8 M287.2,37.3v4.1h1.9l0.5-4.1H287.2
	 M355.3,41.4h0.7l-1.6-4.1h-0.9L355.3,41.4 M371.5,37.3h-0.3l-1.8,4.1h0.3L371.5,37.3 M371.2,37.3h-0.9l-1.6,4.1h0.7L371.2,37.3
	 M355.9,37.3h1.9l0.9,4.1h1.8l-0.5-4.1h-2.2l0.9,4.1h-1.5L355.9,37.3 M370.3,37.3h-1.5l-1.3,4.1h1.2L370.3,37.3 M366.9,37.3
	l-0.9,4.1h1.5l1.3-4.1H366.9 M360,37.3l0.5,4.1h1.9v-4.1H360 M364.7,37.3l-0.5,4.1h1.8l0.9-4.1H364.7 M356,41.4h1.2l-1.3-4.1h-1.5
	L356,41.4 M355,41.4h0.3l-1.8-4.1h-0.3L355,41.4 M362.4,37.3v4.1h1.9l0.5-4.1H362.4 M467.1,126.5l1.6-85.1H468l-1.8,85.1H467.1
	 M475.1,41.4v85.1h2.4L477,41.4H475.1 M478.7,41.4l0.9,85.1h1.9l-1.3-85.1H478.7 M468,41.4h0.7l-1.6-4.1h-0.9L468,41.4 M482.1,41.4
	h-0.7l1.6,85.1h0.9L482.1,41.4 M470.5,37.3l0.9,4.1h1.8h-1.8l-0.9,85.1h2.2l0.5-85.1l-0.5-4.1H470.5 M468.6,126.5l1.3-85.1h-1.2
	l-1.6,85.1H468.6 M468.6,37.3l1.3,4.1h1.5l-0.9-4.1H468.6 M466.2,126.5l1.8-85.1h-0.2l-1.8,85.1H466.2 M468.7,41.4h1.2l-1.3-4.1
	h-1.4L468.7,41.4 M484.2,37.3h-0.3l-1.8,4.1h0.2L484.2,37.3 M479.7,37.3l-0.9,4.1h1.5l1.3-4.1H479.7 M467.7,41.4h0.2l-1.8-4.1h-0.3
	L467.7,41.4 M477.4,37.3l-0.5,4.1h1.8l0.9-4.1H477.4 M475.1,41.4h-1.9l-0.5,85.1h2.4V41.4 M475.1,37.3v4.1h1.9l0.5-4.1H475.1
	 M483.9,37.3l-1.8,4.1h-0.7h-1.2l1.3,85.1h1.4l-1.6-85.1l1.6-4.1H483.9 M472.7,37.3l0.5,4.1h1.9v-4.1H472.7 M483,37.3h-1.4l-1.3,4.1
	h1.2L483,37.3 M482.4,41.4h-0.2l1.8,85.1h0.3L482.4,41.4 M471.4,41.4h-1.5l-1.3,85.1h1.9L471.4,41.4 M477,41.4l0.5,85.1h2.2
	l-0.9-85.1H477 M135,41.4l-0.5,85.1h2.4V41.4H135 M139.3,37.3l-0.5,4.1h1.8l0.9-4.1H139.3 M142.1,41.4l1.3,85.1h1.5l-1.6-85.1H142.1
	 M146.1,37.3h-0.3l-1.8,4.1h0.3L146.1,37.3 M140.6,41.4h-1.8l0.5,85.1h2.2L140.6,41.4 M128.1,126.5h0.9l1.6-85.1h-0.7L128.1,126.5
	 M142.1,41.4h-1.5l0.9,85.1h1.9L142.1,41.4 M145.7,37.3h-0.9l-1.6,4.1h0.7L145.7,37.3 M129,126.5h1.5l1.3-85.1h-1.2l-1.6-4.1h1.5
	l1.3,4.1h-1.2L129,126.5 M133.2,41.4l-0.9,85.1h2.2l0.5-85.1H133.2 M138.8,41.4h-1.9v85.1h2.4L138.8,41.4 M132.3,37.3l0.9,4.1h1.8
	l-0.5-4.1H132.3 M136.9,37.3v4.1h1.9l0.5-4.1H136.9 M144.8,37.3h-1.5l-1.3,4.1h1.2L144.8,37.3 M127.7,126.5h0.3l1.8-85.1h-0.3
	l-1.8-4.1h0.3l1.8,4.1h-0.3L127.7,126.5 M131.7,41.4l-1.3,85.1h1.9l0.9-85.1H131.7 M141.5,37.3l-0.9,4.1h1.5l1.3-4.1H141.5
	 M143.2,41.4l1.6,85.1h0.9L144,41.4H143.2 M134.5,37.3l0.5,4.1h1.9v-4.1H134.5 M129.8,41.4h0.7l-1.6-4.1h-0.9L129.8,41.4
	 M130.4,37.3l1.3,4.1h1.5l-0.9-4.1H130.4 M144,41.4l1.8,85.1h0.3l-1.8-85.1H144 M519,41.4h-1.2l1.3,85.1h1.5L519,41.4 M505.6,41.4
	h0.7l-1.6-4.1h-0.9L505.6,41.4 M506.2,37.3l1.3,4.1h1.5l-0.9-4.1H506.2 M509,41.4h-1.5l-1.3,85.1h1.9L509,41.4 M510.3,37.3l0.5,4.1
	h1.9v-4.1H510.3 M520.6,37.3h-1.5l-1.3,4.1h1.2L520.6,37.3 M510.7,41.4H509l-0.9,85.1h2.2L510.7,41.4 M516.3,41.4l0.9,85.1h1.9
	l-1.3-85.1H516.3 M521.5,37.3h-0.9l-1.6,4.1h0.7L521.5,37.3 M508.1,37.3l0.9,4.1h1.8l-0.5-4.1H508.1 M512.7,41.4v85.1h2.4l-0.5-85.1
	h1.8l0.9,85.1H515l-0.5-85.1H512.7 M517.2,37.3l-0.9,4.1h1.5l1.3-4.1H517.2 M504.7,126.5l1.6-85.1h-0.7l-1.8,85.1H504.7 M519.7,41.4
	H519l1.6,85.1h0.9L519.7,41.4 M512.7,37.3v4.1h1.9l0.5-4.1H512.7 M506.2,126.5l1.3-85.1h-1.2l-1.6,85.1H506.2 M512.7,41.4h-1.9
	l-0.5,85.1h2.4V41.4 M521.8,37.3h-0.3l-1.8,4.1h0.3L521.8,37.3 M505.3,41.4h0.3l-1.8-4.1h-0.3L505.3,41.4 M506.3,41.4h1.2l-1.3-4.1
	h-1.5L506.3,41.4 M503.8,126.5l1.8-85.1h-0.3l-1.8,85.1H503.8 M520,41.4h-0.3l1.8,85.1h0.3L520,41.4 M515,37.3l-0.5,4.1h1.8l0.9-4.1
	H515 M252,37.3l-0.5,4.1h1.8l0.9-4.1H252 M242.3,41.4h0.2l-1.8-4.1h-0.3L242.3,41.4 M257.5,37.3h-1.4l-1.3,4.1h1.2L257.5,37.3
	 M243.3,41.4h1.2l-1.3-4.1h-1.4L243.3,41.4 M254.2,37.3l-0.9,4.1h1.5l1.3-4.1H254.2 M247.2,37.3l0.5,4.1h1.9v-4.1H247.2 M258.5,37.3
	h-0.9l-1.6,4.1h0.7L258.5,37.3 M258.8,37.3h-0.3l-1.8,4.1h0.2L258.8,37.3 M243.1,37.3l1.3,4.1h1.5l-0.9-4.1H243.1 M245,37.3l0.9,4.1
	h1.8l-0.5-4.1H245 M249.6,37.3v4.1h1.9l0.5-4.1H249.6 M242.5,41.4h0.7l-1.6-4.1h-0.9L242.5,41.4 M595.1,41.4h-0.3l1.8,85.1h0.3
	L595.1,41.4 M595.7,37.3h-1.5l-1.3,4.1h1.2L595.7,37.3 M587.8,41.4v85.1h2.4l-0.5-85.1H587.8 M581.3,37.3l1.3,4.1h1.5l-0.9-4.1
	H581.3 M579.9,126.5l1.6-85.1h-0.7l-1.8,85.1H579.9 M583.2,37.3l0.9,4.1h1.8l-0.5-4.1H583.2 M589.7,41.4l0.5,85.1h2.2l-0.9-85.1
	H589.7 M597,37.3h-0.3l-1.8,4.1h0.3L597,37.3 M587.8,37.3v4.1h1.9l0.5-4.1H587.8 M590.2,37.3h2.2l-0.9,4.1l0.9,85.1h1.9L593,41.4
	h-1.5h-1.8L590.2,37.3 M581.3,126.5l1.3-85.1h-1.2l-1.6,85.1H581.3 M580.7,41.4h0.7l-1.6-4.1H579L580.7,41.4 M596.6,37.3h-0.9
	l-1.6,4.1h0.7L596.6,37.3 M587.8,41.4h-1.9l-0.5,85.1h2.4V41.4 M579,126.5l1.8-85.1h-0.3l-1.8,85.1H579 M594.9,41.4h-0.7l1.6,85.1
	h0.9L594.9,41.4 M585.4,37.3l0.5,4.1h1.9v-4.1H585.4 M594.1,41.4H593l1.3,85.1h1.5L594.1,41.4 M581.4,41.4h1.2l-1.3-4.1h-1.5
	L581.4,41.4 M580.5,41.4h0.3l-1.8-4.1h-0.3L580.5,41.4 M584.1,41.4h-1.5l-1.3,85.1h1.9L584.1,41.4 M592.4,37.3l-0.9,4.1h1.5l1.3-4.1
	H592.4 M585.9,41.4h-1.8l-0.9,85.1h2.2L585.9,41.4 M216.6,37.3l-0.9,4.1h1.5l1.3-4.1H216.6 M220,37.3h-1.5l-1.3,4.1h1.2L220,37.3
	 M205.6,37.3l1.3,4.1h1.5l-0.9-4.1H205.6 M207.5,37.3l0.9,4.1h1.8l-0.5-4.1H207.5 M203.2,126.5h0.9l1.6-85.1H205L203.2,126.5
	 M212,37.3v4.1h1.9l0.5-4.1h2.2l-0.9,4.1h-1.8l0.5-4.1H212 M210.1,41.4l-0.5,85.1h2.4V41.4H210.1 M221.2,37.3h-0.3l-1.8,4.1h0.3
	L221.2,37.3 M217.2,41.4l1.3,85.1h1.5l-1.6-85.1H217.2 M215.7,41.4h-1.8l0.5,85.1h2.2L215.7,41.4 M209.7,37.3l0.5,4.1h1.9v-4.1
	H209.7 M205.7,41.4h1.2l-1.3-4.1h-1.5L205.7,41.4 M218.4,41.4l1.6,85.1h0.9l-1.8-85.1H218.4 M204.1,126.5h1.5l1.3-85.1h-1.2
	L204.1,126.5 M213.9,41.4H212v85.1h2.4L213.9,41.4 M208.4,41.4l-0.9,85.1h2.2l0.5-85.1H208.4 M205,41.4h0.7l-1.6-4.1h-0.9L205,41.4
	 M219.1,41.4l1.8,85.1h0.3l-1.8-85.1H219.1 M202.9,126.5h0.3l1.8-85.1h-0.3L202.9,126.5 M217.2,41.4h-1.5l0.9,85.1h1.9L217.2,41.4
	 M204.7,41.4h0.3l-1.8-4.1h-0.3L204.7,41.4 M220.9,37.3H220l-1.6,4.1h0.7L220.9,37.3 M206.9,41.4l-1.3,85.1h1.9l0.9-85.1H206.9
	 M320.2,37.3l0.9,4.1h1.8l-0.5-4.1H320.2 M318.4,41.4h1.2l-1.3-4.1h-1.4L318.4,41.4 M317.7,41.4h0.7l-1.6-4.1h-0.9L317.7,41.4
	 M329.4,37.3l-0.9,4.1h1.5l1.3-4.1H329.4 M333.6,37.3h-0.9l-1.6,4.1h0.7L333.6,37.3 M322.4,37.3l0.5,4.1h1.9v-4.1H322.4 M318.3,37.3
	l1.3,4.1h1.5l-0.9-4.1H318.3 M324.8,37.3v4.1h1.9l0.5-4.1H324.8 M333.9,37.3h-0.3l-1.8,4.1h0.2L333.9,37.3 M317.4,41.4h0.2l-1.8-4.1
	h-0.3L317.4,41.4 M332.7,37.3h-1.4l-1.3,4.1h1.2L332.7,37.3 M327.1,37.3l-0.5,4.1h1.8l0.9-4.1H327.1 M97.4,41.4l-0.5,85.1h2.4V41.4
	H97.4 M108.2,37.3h-0.9l-1.6,4.1h0.7L108.2,37.3 M95.7,41.4l-0.9,85.1h2.2l0.5-85.1H95.7 M104.5,41.4H103l0.9,85.1h1.9L104.5,41.4
	 M103,41.4h-1.8l0.5,85.1h2.2L103,41.4 M91.4,126.5h1.4l1.3-85.1H93L91.4,126.5 M96.9,37.3l0.5,4.1h1.9v-4.1H96.9 M92,41.4h0.2
	l-1.8-4.1h-0.3L92,41.4 M108.5,37.3h-0.3l-1.8,4.1h0.2L108.5,37.3 M94.7,37.3l0.9,4.1h1.8l-0.5-4.1H94.7 M101.7,37.3l-0.5,4.1h1.8
	l0.9-4.1H101.7 M104.5,41.4l1.3,85.1h1.4l-1.6-85.1H104.5 M99.3,37.3v4.1h1.9l0.5-4.1H99.3 M105.7,41.4l1.6,85.1h0.9l-1.8-85.1
	H105.7 M106.4,41.4l1.8,85.1h0.3l-1.8-85.1H106.4 M90.5,126.5h0.9L93,41.4h-0.7L90.5,126.5 M107.2,37.3h-1.4l-1.3,4.1h1.2
	L107.2,37.3 M93,41.4h1.2l-1.3-4.1h-1.4L93,41.4 M103.9,37.3l-0.9,4.1h1.5l1.3-4.1H103.9 M90.2,126.5h0.3l1.8-85.1H92L90.2,126.5
	 M92.2,41.4H93l-1.6-4.1h-0.9L92.2,41.4 M101.2,41.4h-1.9v85.1h2.4L101.2,41.4 M92.8,37.3l1.3,4.1h1.5l-0.9-4.1H92.8 M94.1,41.4
	l-1.3,85.1h1.9l0.9-85.1H94.1 M439.9,37.3l-0.5,4.1h1.8l0.9-4.1H439.9 M442.1,37.3l-0.9,4.1h1.5l1.3-4.1H442.1 M431,37.3l1.3,4.1
	h1.5l-0.9-4.1H431 M443.8,41.4h-1.2l1.3,85.1h1.5L443.8,41.4 M446.7,37.3h-0.3l-1.8,4.1h0.3L446.7,37.3 M428.7,126.5l1.8-85.1h-0.3
	l-1.8,85.1H428.7 M446.3,37.3h-0.9l-1.6,4.1h0.7L446.3,37.3 M439.4,41.4l0.5,85.1h2.2l-0.9-85.1H439.4 M444.6,41.4h-0.7l1.6,85.1
	h0.9L444.6,41.4 M435.1,37.3l0.5,4.1h1.9v-4.1H435.1 M444.8,41.4h-0.3l1.8,85.1h0.3L444.8,41.4 M437.5,41.4h-1.9l-0.5,85.1h2.4V41.4
	 M441.2,41.4l0.9,85.1h1.9l-1.3-85.1H441.2 M435.6,41.4h-1.8l-0.9,85.1h2.2L435.6,41.4 M429.6,126.5l1.6-85.1h-0.7l-1.8,85.1H429.6
	 M437.5,41.4v85.1h2.4l-0.5-85.1H437.5 M430.4,41.4h0.7l-1.6-4.1h-0.9L430.4,41.4 M430.2,41.4h0.3l-1.8-4.1h-0.3L430.2,41.4
	 M437.5,37.3v4.1h1.9l0.5-4.1H437.5 M432.9,37.3l0.9,4.1h1.8l-0.5-4.1H432.9 M445.4,37.3H444l-1.3,4.1h1.2L445.4,37.3 M433.8,41.4
	h-1.5l-1.3,85.1h1.9L433.8,41.4 M431,126.5l1.3-85.1h-1.2h1.2l-1.3-4.1h-1.5l1.6,4.1l-1.6,85.1H431 M543.7,37.3l1.3,4.1h1.5
	l-0.9-4.1H543.7 M543.7,126.5l1.3-85.1h-1.2l-1.6,85.1H543.7 M559.4,37.3h-0.3l-1.8,4.1h0.2L559.4,37.3 M552.1,41.4l0.5,85.1h2.2
	l-0.9-85.1H552.1 M559.1,37.3h-0.9l-1.6,4.1h0.7L559.1,37.3 M545.6,37.3l0.9,4.1h1.8l-0.5-4.1H545.6 M557.5,41.4h-0.2l1.8,85.1h0.3
	L557.5,41.4 M550.2,37.3v4.1h1.9l0.5-4.1H550.2 M543.9,41.4h1.2l-1.3-4.1h-1.4L543.9,41.4 M550.2,41.4v85.1h2.4l-0.5-85.1H550.2
	 M557.3,41.4h-0.7l1.6,85.1h0.9L557.3,41.4 M558.1,37.3h-1.4l-1.3,4.1h1.2L558.1,37.3 M552.6,37.3l-0.5,4.1h1.8l0.9-4.1H552.6
	 M541.4,126.5l1.8-85.1h-0.2l-1.8,85.1H541.4 M556.6,41.4h-1.2l1.3,85.1h1.4L556.6,41.4 M546.6,41.4H545l-1.3,85.1h1.9L546.6,41.4
	 M553.9,41.4l0.9,85.1h1.9l-1.3-85.1H553.9 M547.8,37.3l0.5,4.1h1.9v-4.1H547.8 M554.8,37.3l-0.9,4.1h1.5l1.3-4.1H554.8 M542.9,41.4
	h0.2l-1.8-4.1h-0.3L542.9,41.4 M548.3,41.4h-1.8l-0.9,85.1h2.2L548.3,41.4 M542.3,126.5l1.6-85.1h-0.7l-1.8,85.1H542.3 M543.1,41.4
	h0.7l-1.6-4.1h-0.9L543.1,41.4 M550.2,41.4h-1.9l-0.5,85.1h2.4V41.4 M240.8,126.5h0.9l1.6-85.1h-0.7L240.8,126.5 M247.7,41.4
	l-0.5,85.1h2.4V41.4H247.7 M254.8,41.4l1.3,85.1h1.4L256,41.4H254.8 M253.3,41.4h-1.8l0.5,85.1h2.2L253.3,41.4 M256,41.4l1.6,85.1
	h0.9l-1.8-85.1H256 M241.7,126.5h1.4l1.3-85.1h-1.2L241.7,126.5 M251.5,41.4h-1.9v85.1h2.4L251.5,41.4 M246,41.4l-0.9,85.1h2.2
	l0.5-85.1H246 M256.7,41.4l1.8,85.1h0.3l-1.8-85.1H256.7 M240.5,126.5h0.3l1.8-85.1h-0.2L240.5,126.5 M254.8,41.4h-1.5l0.9,85.1h1.9
	L254.8,41.4 M244.4,41.4l-1.3,85.1h1.9l0.9-85.1H244.4 M278.4,126.5h0.9l1.6-85.1h-0.7L278.4,126.5 M285.3,41.4l-0.5,85.1h2.4V41.4
	H285.3 M292.4,41.4l1.3,85.1h1.5l-1.6-85.1H292.4 M290.9,41.4h-1.8l0.5,85.1h2.2L290.9,41.4 M293.5,41.4l1.6,85.1h0.9l-1.8-85.1
	H293.5 M279.3,126.5h1.5l1.3-85.1h-1.2L279.3,126.5 M289.1,41.4h-1.9v85.1h2.4L289.1,41.4 M283.5,41.4l-0.9,85.1h2.2l0.5-85.1H283.5
	 M294.3,41.4l1.8,85.1h0.3l-1.8-85.1H294.3 M278,126.5h0.3l1.8-85.1h-0.3L278,126.5 M292.4,41.4h-1.5l0.9,85.1h1.9L292.4,41.4
	 M282,41.4l-1.3,85.1h1.9l0.9-85.1H282 M315.9,126.5h0.9l1.6-85.1h-0.7L315.9,126.5 M322.9,41.4l-0.5,85.1h2.4V41.4H322.9 M330,41.4
	l1.3,85.1h1.4l-1.6-85.1H330 M328.4,41.4h-1.8l0.5,85.1h2.2L328.4,41.4 M331.1,41.4l1.6,85.1h0.9l-1.8-85.1H331.1 M316.8,126.5h1.4
	l1.3-85.1h-1.2L316.8,126.5 M326.7,41.4h-1.9v85.1h2.4L326.7,41.4 M321.1,41.4l-0.9,85.1h2.2l0.5-85.1H321.1 M331.8,41.4l1.8,85.1
	h0.3l-1.8-85.1H331.8 M315.6,126.5h0.3l1.8-85.1h-0.2L315.6,126.5 M330,41.4h-1.5l0.9,85.1h1.9L330,41.4 M319.6,41.4l-1.3,85.1h1.9
	l0.9-85.1H319.6 M353.5,126.5h0.9l1.6-85.1h-0.7L353.5,126.5 M360.4,41.4l-0.5,85.1h2.4V41.4H360.4 M367.5,41.4l1.3,85.1h1.5
	l-1.6-85.1H367.5 M366,41.4h-1.8l0.5,85.1h2.2L366,41.4 M368.7,41.4l1.6,85.1h0.9l-1.8-85.1H368.7 M354.4,126.5h1.5l1.3-85.1H356
	L354.4,126.5 M364.2,41.4h-1.9v85.1h2.4L364.2,41.4 M358.7,41.4l-0.9,85.1h2.2l0.5-85.1H358.7 M369.4,41.4l1.8,85.1h0.3l-1.8-85.1
	H369.4 M353.2,126.5h0.3l1.8-85.1H355L353.2,126.5 M367.5,41.4H366l0.9,85.1h1.9L367.5,41.4 M357.2,41.4l-1.3,85.1h1.9l0.9-85.1
	H357.2 M391.1,126.5h0.9l1.6-85.1h-0.7L391.1,126.5 M398,41.4l-0.5,85.1h2.4V41.4H398 M405.1,41.4l1.3,85.1h1.4l-1.6-85.1H405.1
	 M403.6,41.4h-1.8l0.5,85.1h2.2L403.6,41.4 M406.3,41.4l1.6,85.1h0.9L407,41.4H406.3 M392,126.5h1.4l1.3-85.1h-1.2L392,126.5
	 M401.8,41.4h-1.9v85.1h2.4L401.8,41.4 M396.3,41.4l-0.9,85.1h2.2l0.5-85.1H396.3 M407,41.4l1.8,85.1h0.3l-1.8-85.1H407
	 M390.8,126.5h0.3l1.8-85.1h-0.2L390.8,126.5 M405.1,41.4h-1.5l0.9,85.1h1.9L405.1,41.4 M394.7,41.4l-1.3,85.1h1.9l0.9-85.1H394.7"
	/>
<g>
	<defs>
		<polyline id="SVGID_1_" points="-94.7,369.2 742.6,369.2 742.6,-221.6 -94.7,-221.6 -94.7,369.2 		"/>
	</defs>
	<clipPath id="SVGID_2_">
		<use xlink:href="#SVGID_1_"  style="overflow:visible;"/>
	</clipPath>
</g>
</svg>
